<svg width="1em" height="1em" viewBox="0 0 24 24" fill="none" xmlns="http://www.w3.org/2000/svg" class="w-6 h-6 pointer-events-none !h-6 !w-6 text-base -ml-2 mr-1"><path fill-rule="evenodd" clip-rule="evenodd" d="M23.772 14.342a12.062 12.062 0 000-4.684l-.49.097-.491.097a11.056 11.056 0 010 4.296l.49.097.49.097zm-1.793 4.325l-.416-.278-.415-.278a11.066 11.066 0 01-3.037 3.037l.278.415.278.416a12.066 12.066 0 003.312-3.312zm-7.637 5.105l-.097-.49-.097-.491a11.057 11.057 0 01-4.296 0l-.097.49-.097.49a12.062 12.062 0 004.684 0zm-9.01-1.793l.279-.416.278-.415a11.066 11.066 0 01-3.037-3.037l-.415.278-.416.278a12.066 12.066 0 003.312 3.312zM.229 14.342a12.058 12.058 0 010-4.684l.49.097.491.097a11.059 11.059 0 000 4.296l-.49.097-.49.097zm1.793-9.01l.416.279.415.278A11.066 11.066 0 015.89 2.852l-.278-.415-.278-.416A12.066 12.066 0 002.02 5.333zM9.658.229l.097.49.097.491a11.059 11.059 0 014.296 0l.097-.49.097-.49a12.058 12.058 0 00-4.684 0zm9.01 1.793l-.279.416-.278.415c1.2.804 2.233 1.837 3.037 3.037l.415-.278.416-.278a12.066 12.066 0 00-3.312-3.312z" fill="#FC538D"></path></svg>