<svg
            width="10px"
            height="10px"
            viewBox="0 0 24 24"
            xmlns="http://www.w3.org/2000/svg"
             fill="currentColor"
            className="w-7 h-7 pointer-events-none size-6"
          >
            <path
              d="M7.833 13a3.167 3.167 0 013.162 2.987l.005.18v1.666a3.167 3.167 0 01-2.987 3.162l-.18.005H6.167a3.167 3.167 0 01-3.162-2.987L3 17.833v-1.666a3.167 3.167 0 012.987-3.162l.18-.005h1.666zm10 0a3.167 3.167 0 013.162 2.987l.005.18v1.666a3.167 3.167 0 01-2.987 3.162l-.18.005h-1.666a3.167 3.167 0 01-3.162-2.987l-.005-.18v-1.666a3.167 3.167 0 012.987-3.162l.18-.005h1.666zm-10 1.5H6.167c-.872 0-1.588.67-1.66 1.523l-.007.144v1.666c0 .872.67 1.588 1.523 1.66l.144.007h1.666l.144-.006a1.667 1.667 0 001.516-1.509l.007-.152v-1.666c0-.872-.67-1.588-1.523-1.66l-.144-.007zm10 0h-1.666c-.872 0-1.588.67-1.66 1.523l-.007.144v1.666c0 .872.67 1.588 1.523 1.66l.144.007h1.666l.144-.006a1.667 1.667 0 001.516-1.509l.007-.152v-1.666c0-.872-.67-1.588-1.523-1.66l-.144-.007zM7.833 3a3.167 3.167 0 013.162 2.987l.005.18v1.666a3.167 3.167 0 01-2.987 3.162l-.18.005H6.167a3.167 3.167 0 01-3.162-2.987L3 7.833V6.167a3.167 3.167 0 012.987-3.162L6.167 3h1.666zm12.528 3.259a.75.75 0 01-.009 1.484l-.102.007h-2.5v2.5a.75.75 0 01-1.491.111l-.009-.11V7.75h-2.5l-.111-.009a.75.75 0 01.009-1.484l.102-.007h2.5v-2.5a.75.75 0 011.491-.111l.009.11V6.25h2.5l.111.009zM7.833 4.5H6.167c-.872 0-1.588.67-1.66 1.523l-.007.144v1.666c0 .872.67 1.588 1.523 1.66l.144.007h1.666l.144-.006a1.667 1.667 0 001.516-1.509l.007-.152V6.167c0-.872-.67-1.588-1.523-1.66L7.833 4.5z"
              fill="currentcolor"
              fill-rule="evenodd"
            ></path>
          </svg>